<?xml version="1.0" encoding="utf-8"?>
<!-- Generator: Adobe Illustrator 18.1.1, SVG Export Plug-In . SVG Version: 6.00 Build 0)  -->
<svg version="1.1" xmlns="http://www.w3.org/2000/svg" xmlns:xlink="http://www.w3.org/1999/xlink" x="0px" y="0px"
	 viewBox="0 0 69.2 50" enable-background="new 0 0 69.2 50" xml:space="preserve">
<g id="background">
</g>
<g id="slider">
</g>
<g id="contenido">
	<g>
		<defs>
			<polygon id="SVGID_6_" points="801,-379.1 764,-416.1 727,-379.1 124,-379.1 124,187.9 1404,187.9 1404,-379.1 			"/>
		</defs>
		<clipPath id="SVGID_2_">
			<use xlink:href="#SVGID_6_"  overflow="visible"/>
		</clipPath>
		<g id="ZS8YRP_2_" clip-path="url(#SVGID_2_)">
			
				<image overflow="visible" width="1280" height="533" id="ZS8YRP_1_" xlink:href="62666296.jpg"  transform="matrix(1.1509 0 0 1.1509 27.4268 -424.2534)">
			</image>
		</g>
		<rect x="42.6" y="-470.5" opacity="0.7" clip-path="url(#SVGID_2_)" fill="#D50613" width="1585.4" height="741"/>
	</g>
	<g>
		<g>
			<circle fill="#FFFFFF" cx="58.5" cy="37.4" r="5.4"/>
			<path fill="#FFFFFF" d="M69.1,43.6c-0.3-1-1.3-1.7-2.4-1.4l-13,3.5l-2-4.2c0.4-0.6,0.7-1.4,0.7-2.2c0-2.2-1.8-3.9-3.9-3.9H23.5
				c-1,0-1.9,0.4-2.6,1h-18c-1.6,0-2.9,1.3-2.9,2.9s1.3,2.9,2.9,2.9h18c0.7,0.6,1.6,1,2.6,1h24.6l2.7,5.7c0.3,0.7,1,1.1,1.8,1.1
				l0.5-0.1L67.7,46C68.8,45.7,69.4,44.7,69.1,43.6z"/>
			<path fill="#FFFFFF" d="M24.1,34.4c0.3,0,0.5,0.1,0.8,0.1c2.4,0,4.4-1.7,4.8-4.1l1.1-7l11.7,10.2c0.4,0.3,0.8,0.5,1.3,0.5
				c0.5,0,1.1-0.2,1.5-0.7c0.7-0.8,0.6-2-0.2-2.8L31.6,18.7l0.1-0.7c0.4-2.7-1.4-5.2-4.1-5.6c-2.7-0.4-5.2,1.4-5.6,4.1l-2,12.3
				C19.6,31.4,21.5,33.9,24.1,34.4z"/>
			<circle fill="#FFFFFF" cx="29.7" cy="5.9" r="5.9"/>
		</g>
	</g>
</g>
<g id="footer">
</g>
<g id="header">
</g>
<g id="guias">
</g>
<g id="Capa_6">
</g>
</svg>
