<?xml version="1.0" encoding="utf-8"?>
<!-- Generator: Adobe Illustrator 18.1.1, SVG Export Plug-In . SVG Version: 6.00 Build 0)  -->
<svg version="1.1" xmlns="http://www.w3.org/2000/svg" xmlns:xlink="http://www.w3.org/1999/xlink" x="0px" y="0px"
	 viewBox="0 0 49 50" enable-background="new 0 0 49 50" xml:space="preserve">
<g id="background">
</g>
<g id="slider">
</g>
<g id="contenido">
	<g>
		<defs>
			<polygon id="SVGID_6_" points="766.4,-217.2 729.4,-254.2 692.4,-217.2 89.4,-217.2 89.4,349.8 1369.4,349.8 1369.4,-217.2 			
				"/>
		</defs>
		<clipPath id="SVGID_2_">
			<use xlink:href="#SVGID_6_"  overflow="visible"/>
		</clipPath>
		<g id="ZS8YRP_2_" clip-path="url(#SVGID_2_)">
			
				<image overflow="visible" width="1280" height="533" id="ZS8YRP_1_" xlink:href="F6F6D90D.jpg"  transform="matrix(1.1509 0 0 1.1509 -7.1712 -262.3668)">
			</image>
		</g>
		<rect x="8" y="-308.6" opacity="0.7" clip-path="url(#SVGID_2_)" fill="#D50613" width="1585.4" height="741"/>
	</g>
	<g>
		<g id="_x36_6_1_">
			<g>
				<circle fill="#FFFFFF" cx="15.2" cy="18.7" r="5.6"/>
				<path fill="#FFFFFF" d="M48,30.3c-0.2-0.2-5.4-4.1-9.2-5.9l-12.5-5.8v-7c2.2-0.9,3.8-3.1,3.8-5.6c0-3.3-2.7-6-6-6
					c-3.3,0-6,2.7-6,6c0,2.6,1.7,4.9,4,5.7v8.2c-0.3,0.6-1.3,2.6-1.3,4.3c0,1.1,0.7,2.2,1.8,2.7l11.7,4.5c0.7,0.3,1.6,0.2,2.3-0.1
					c0.2-0.1,0.3-0.2,0.4-0.3l6.5,3.1v13.1c0,1.6,1.3,2.8,2.8,2.8c1.6,0,2.8-1.3,2.8-2.8V32.6C49,31.7,48.6,30.9,48,30.3z M24,8.2
					c-1.2,0-2.2-1-2.2-2.2c0-1.2,1-2.2,2.2-2.2c1.2,0,2.2,1,2.2,2.2C26.2,7.2,25.2,8.2,24,8.2z"/>
				<path fill="#FFFFFF" d="M40.7,34.8l-35-9.2V3.4c0-1.6-1.3-2.9-2.9-2.9C1.3,0.5,0,1.8,0,3.4v43.5c0,1.6,1.3,2.9,2.9,2.9
					c1.6,0,2.9-1.3,2.9-2.9V31.6l25.4,6.7v8.6c0,1.6,1.3,2.9,2.9,2.9c1.6,0,2.9-1.3,2.9-2.9v-7.1l2.4,0.6c1.5,0.4,3.1-0.5,3.5-2.1
					C43.2,36.8,42.3,35.2,40.7,34.8z"/>
			</g>
		</g>
	</g>
</g>
<g id="footer">
</g>
<g id="header">
</g>
<g id="guias">
</g>
<g id="Capa_6">
</g>
</svg>
