<?xml version="1.0" encoding="utf-8"?>
<!-- Generator: Adobe Illustrator 18.1.1, SVG Export Plug-In . SVG Version: 6.00 Build 0)  -->
<svg version="1.1" xmlns="http://www.w3.org/2000/svg" xmlns:xlink="http://www.w3.org/1999/xlink" x="0px" y="0px"
	 viewBox="0 0 40.3 50" enable-background="new 0 0 40.3 50" xml:space="preserve">
<g id="background">
</g>
<g id="slider">
</g>
<g id="contenido">
	<g>
		<defs>
			<polygon id="SVGID_6_" points="786.6,-313 749.5,-350 712.5,-313 109.5,-313 109.5,254 1389.5,254 1389.5,-313 			"/>
		</defs>
		<clipPath id="SVGID_2_">
			<use xlink:href="#SVGID_6_"  overflow="visible"/>
		</clipPath>
		<g id="ZS8YRP_2_" clip-path="url(#SVGID_2_)">
			
				<image overflow="visible" width="1280" height="533" id="ZS8YRP_1_" xlink:href="60E5CA5E.jpg"  transform="matrix(1.1509 0 0 1.1509 12.983 -358.1802)">
			</image>
		</g>
		<rect x="28.2" y="-404.4" opacity="0.7" clip-path="url(#SVGID_2_)" fill="#D50613" width="1585.4" height="741"/>
	</g>
	<g>
		<g id="_x36_4_2_">
			<g>
				<path fill="#FFFFFF" d="M34.9,16.1l2.2-2.4c0.6-0.6,0.6-1.6-0.1-2.2l-1.9-1.8c-0.6-0.6-1.6-0.6-2.2,0.1l-2.6,2.7
					c-2-1.2-4.3-2.1-6.6-2.5V6.7h3c0.9,0,1.6-0.7,1.6-1.6V1.6c0-0.9-0.7-1.6-1.6-1.6H13.5C12.6,0,12,0.7,12,1.6v3.6
					c0,0.9,0.7,1.6,1.6,1.6h3V10c-2.4,0.4-4.7,1.3-6.7,2.6c0,0,0,0,0,0L6.8,9.8C6.2,9.2,5.2,9.2,4.6,9.8l-1.8,1.9
					c-0.6,0.6-0.6,1.6,0.1,2.2l2.4,2.3C2,19.8,0,24.6,0,29.8C0,41,9,50,20.2,50s20.2-9,20.2-20.2C40.3,24.5,38.2,19.7,34.9,16.1z
					 M20.2,46.4C11,46.4,3.6,39,3.6,29.8S11,13.3,20.2,13.3s16.5,7.4,16.5,16.5C36.7,39,29.3,46.4,20.2,46.4z"/>
				<path fill="#FFFFFF" d="M27.5,26c-3.5-2.5-6.4,0.8-7.1,0.8c0,0-0.1,0-0.1,0c-0.7,0-3.6-3.3-7.1-0.8c-3.5,2.5-0.9,14.3,5.8,14.3
					c0.5,0,1,0,1.4,0c0.4,0,0.8,0,1.3,0C28.3,40.3,31,28.5,27.5,26z"/>
				<path fill="#FFFFFF" d="M20.5,25.8c1-0.4,6.4-5.3,2.9-7.4c-3.2-2-4.1,5.1-3.6,7C19.8,25.6,20.2,25.9,20.5,25.8z"/>
			</g>
		</g>
	</g>
</g>
<g id="footer">
</g>
<g id="header">
</g>
<g id="guias">
</g>
<g id="Capa_6">
</g>
</svg>
